<svg width="30" height="30" viewBox="0 0 30 30" fill="none" xmlns="http://www.w3.org/2000/svg">
<path d="M17.9 23.8375C17.9 24.6 17.3999 25.6 16.7624 25.9875L15 27.125C13.3625 28.1375 11.0874 27 11.0874 24.975V18.2875C11.0874 17.4 10.5875 16.2625 10.075 15.6375L5.27492 10.5875C4.63742 9.95 4.13745 8.82502 4.13745 8.06252V5.16251C4.13745 3.65001 5.27498 2.51251 6.66248 2.51251H23.3374C24.7249 2.51251 25.8625 3.65 25.8625 5.0375V7.8125C25.8625 8.825 25.2249 10.0875 24.5999 10.7125M24.8374 21.4L23.5874 20.15M24.0875 16.65C24.0875 18.8591 22.2966 20.65 20.0875 20.65C17.8783 20.65 16.0874 18.8591 16.0874 16.65C16.0874 14.4409 17.8783 12.65 20.0875 12.65C22.2966 12.65 24.0875 14.4409 24.0875 16.65Z" stroke="#292D32" stroke-width="1.5" stroke-linecap="round" stroke-linejoin="round"/>
</svg>
