<svg width="24" height="24" viewBox="0 0 24 24" fill="none" xmlns="http://www.w3.org/2000/svg">
<path d="M2 21.25C1.58579 21.25 1.25 21.5858 1.25 22C1.25 22.4142 1.58579 22.75 2 22.75V21.25ZM22 22.75C22.4142 22.75 22.75 22.4142 22.75 22C22.75 21.5858 22.4142 21.25 22 21.25V22.75ZM3 9.96999L3.75 9.9731V9.96999H3ZM3.77 8.40004L3.30924 7.80824L3.30447 7.81201L3.77 8.40004ZM10.77 2.95003L10.3095 2.35802L10.3093 2.35824L10.77 2.95003ZM13.23 2.95003L13.6902 2.35782L13.6865 2.35496L13.23 2.95003ZM20.23 8.39003L19.7698 8.98223L19.7704 8.9827L20.23 8.39003ZM9.5 22H8.75C8.75 22.4142 9.08579 22.75 9.5 22.75V22ZM14.5 22V22.75C14.9142 22.75 15.25 22.4142 15.25 22H14.5ZM18.25 7.0075C18.2542 7.42169 18.5933 7.7541 19.0075 7.74996C19.4217 7.74582 19.7541 7.40669 19.75 6.9925L18.25 7.0075ZM18.97 4L19.72 3.9925C19.7159 3.58123 19.3813 3.25 18.97 3.25V4ZM14.57 3.25C14.1558 3.25 13.82 3.58579 13.82 4C13.82 4.41421 14.1558 4.75 14.57 4.75V3.25ZM2 22.75H22V21.25H2V22.75ZM3.69999 22.0031L3.74999 9.9731L2.25001 9.96687L2.20001 21.9969L3.69999 22.0031ZM3.75 9.96999C3.75 9.59743 3.92864 9.23103 4.23553 8.98808L3.30447 7.81201C2.65136 8.32905 2.25 9.12255 2.25 9.96999H3.75ZM4.23075 8.99183L11.2307 3.54182L10.3093 2.35824L3.30925 7.80826L4.23075 8.99183ZM11.2305 3.54204C11.6778 3.19413 12.3109 3.19023 12.7735 3.5451L13.6865 2.35496C12.6891 1.58983 11.3022 1.58593 10.3095 2.35802L11.2305 3.54204ZM12.7698 3.54223L19.7698 8.98223L20.6902 7.79784L13.6902 2.35783L12.7698 3.54223ZM19.7704 8.9827C20.0745 9.21853 20.25 9.57835 20.25 9.96999H21.75C21.75 9.12163 21.3655 8.32153 20.6896 7.79737L19.7704 8.9827ZM20.25 9.96999V22H21.75V9.96999H20.25ZM13 16.25H11V17.75H13V16.25ZM11 16.25C9.75579 16.25 8.75 17.2558 8.75 18.5H10.25C10.25 18.0842 10.5842 17.75 11 17.75V16.25ZM8.75 18.5V22H10.25V18.5H8.75ZM9.5 22.75H14.5V21.25H9.5V22.75ZM15.25 22V18.5H13.75V22H15.25ZM15.25 18.5C15.25 17.2558 14.2442 16.25 13 16.25V17.75C13.4158 17.75 13.75 18.0842 13.75 18.5H15.25ZM9.5 13H7.5V14.5H9.5V13ZM7.5 13C7.36421 13 7.25 12.8858 7.25 12.75H5.75C5.75 13.7142 6.53579 14.5 7.5 14.5V13ZM7.25 12.75V11.25H5.75V12.75H7.25ZM7.25 11.25C7.25 11.1142 7.36421 11 7.5 11V9.5C6.53579 9.5 5.75 10.2858 5.75 11.25H7.25ZM7.5 11H9.5V9.5H7.5V11ZM9.5 11C9.63579 11 9.75 11.1142 9.75 11.25H11.25C11.25 10.2858 10.4642 9.5 9.5 9.5V11ZM9.75 11.25V12.75H11.25V11.25H9.75ZM9.75 12.75C9.75 12.8858 9.63579 13 9.5 13V14.5C10.4642 14.5 11.25 13.7142 11.25 12.75H9.75ZM16.5 13H14.5V14.5H16.5V13ZM14.5 13C14.3642 13 14.25 12.8858 14.25 12.75H12.75C12.75 13.7142 13.5358 14.5 14.5 14.5V13ZM14.25 12.75V11.25H12.75V12.75H14.25ZM14.25 11.25C14.25 11.1142 14.3642 11 14.5 11V9.5C13.5358 9.5 12.75 10.2858 12.75 11.25H14.25ZM14.5 11H16.5V9.5H14.5V11ZM16.5 11C16.6358 11 16.75 11.1142 16.75 11.25H18.25C18.25 10.2858 17.4642 9.5 16.5 9.5V11ZM16.75 11.25V12.75H18.25V11.25H16.75ZM16.75 12.75C16.75 12.8858 16.6358 13 16.5 13V14.5C17.4642 14.5 18.25 13.7142 18.25 12.75H16.75ZM19.75 6.9925L19.72 3.9925L18.22 4.0075L18.25 7.0075L19.75 6.9925ZM18.97 3.25H14.57V4.75H18.97V3.25Z" fill="white"/>
</svg>
