<svg width="20" height="20" viewBox="0 0 20 20" fill="none" xmlns="http://www.w3.org/2000/svg">
<path d="M9.99996 10C8.71663 10 7.61802 9.54308 6.70413 8.62919C5.79024 7.7153 5.33329 6.61669 5.33329 5.33335C5.33329 4.05002 5.79024 2.95141 6.70413 2.03752C7.61802 1.12363 8.71663 0.666687 9.99996 0.666687C11.2833 0.666687 12.3819 1.12363 13.2958 2.03752C14.2097 2.95141 14.6666 4.05002 14.6666 5.33335C14.6666 6.61669 14.2097 7.7153 13.2958 8.62919C12.3819 9.54308 11.2833 10 9.99996 10ZM0.666626 19.3334V16.0667C0.666626 15.4056 0.836765 14.7979 1.17704 14.2438C1.51732 13.6896 1.9694 13.2667 2.53329 12.975C3.73885 12.3722 4.96385 11.9202 6.20829 11.6188C7.45274 11.3174 8.71663 11.1667 9.99996 11.1667C11.2833 11.1667 12.5472 11.3174 13.7916 11.6188C15.0361 11.9202 16.2611 12.3722 17.4666 12.975C18.0305 13.2667 18.4826 13.6896 18.8229 14.2438C19.1632 14.7979 19.3333 15.4056 19.3333 16.0667V19.3334H0.666626ZM2.99996 17H17V16.0667C17 15.8528 16.9465 15.6584 16.8395 15.4834C16.7326 15.3084 16.5916 15.1722 16.4166 15.075C15.3666 14.55 14.3069 14.1563 13.2375 13.8938C12.168 13.6313 11.0888 13.5 9.99996 13.5C8.91107 13.5 7.8319 13.6313 6.76246 13.8938C5.69302 14.1563 4.63329 14.55 3.58329 15.075C3.40829 15.1722 3.26732 15.3084 3.16038 15.4834C3.05343 15.6584 2.99996 15.8528 2.99996 16.0667V17ZM9.99996 7.66669C10.6416 7.66669 11.1909 7.43822 11.6479 6.98127C12.1048 6.52433 12.3333 5.97502 12.3333 5.33335C12.3333 4.69169 12.1048 4.14238 11.6479 3.68544C11.1909 3.22849 10.6416 3.00002 9.99996 3.00002C9.35829 3.00002 8.80899 3.22849 8.35204 3.68544C7.8951 4.14238 7.66663 4.69169 7.66663 5.33335C7.66663 5.97502 7.8951 6.52433 8.35204 6.98127C8.80899 7.43822 9.35829 7.66669 9.99996 7.66669Z" fill="#1D1B20"/>
</svg>
