<svg width="22" height="22" viewBox="0 0 22 22" fill="none" xmlns="http://www.w3.org/2000/svg">
<path d="M4.63002 12.08L4.62002 16.77C4.62002 18.04 5.60002 19.4 6.80002 19.8L9.99002 20.86C10.54 21.04 11.45 21.04 12.01 20.86L15.2 19.8C16.4 19.4 17.38 18.04 17.38 16.77V12.13M20.4 14V7.99997M9.05002 1.52997L3.03002 5.45997C1.10002 6.71997 1.10002 9.53998 3.03002 10.8L9.05002 14.73C10.13 15.44 11.91 15.44 12.99 14.73L18.98 10.8C20.9 9.53998 20.9 6.72997 18.98 5.46997L12.99 1.53997C11.91 0.819975 10.13 0.819975 9.05002 1.52997Z" stroke="white" stroke-width="1.5" stroke-linecap="round" stroke-linejoin="round"/>
</svg>
