<svg width="28" height="28" viewBox="0 0 28 28" fill="none" xmlns="http://www.w3.org/2000/svg">
<path fill-rule="evenodd" clip-rule="evenodd" d="M2 0C0.89543 0 0 0.89543 0 2V14C0 15.1046 0.89543 16 2 16H10C11.1046 16 12 15.1046 12 14V2C12 0.89543 11.1046 0 10 0H2ZM16 2C16 0.89543 16.8954 0 18 0H26C27.1046 0 28 0.89543 28 2V6.02C28 7.12456 27.1046 8.02 26 8.02H18C16.8954 8.02 16 7.12456 16 6.02V2ZM16 14C16 12.8954 16.8954 12 18 12H26C27.1046 12 28 12.8954 28 14V26C28 27.1046 27.1046 28 26 28H18C16.8954 28 16 27.1046 16 26V14ZM0 21.98C0 20.8754 0.89543 19.98 2 19.98H10C11.1046 19.98 12 20.8754 12 21.98V26C12 27.1046 11.1046 28 10 28H2C0.89543 28 0 27.1046 0 26V21.98Z" fill="#42AAFF"/>
</svg>
