<svg width="270" height="30" viewBox="0 0 270 30" fill="none" xmlns="http://www.w3.org/2000/svg">
<rect width="322" height="103" fill="white"/>
<path d="M16.3438 21.5586C16.3438 21.0508 16.2656 20.5951 16.1094 20.1914C15.9661 19.7747 15.6927 19.3971 15.2891 19.0586C14.8854 18.707 14.319 18.362 13.5898 18.0234C12.8607 17.6849 11.9167 17.3333 10.7578 16.9688C9.46875 16.5521 8.24479 16.0833 7.08594 15.5625C5.9401 15.0417 4.92448 14.4362 4.03906 13.7461C3.16667 13.043 2.47656 12.2292 1.96875 11.3047C1.47396 10.3802 1.22656 9.30599 1.22656 8.08203C1.22656 6.89714 1.48698 5.82292 2.00781 4.85938C2.52865 3.88281 3.25781 3.04948 4.19531 2.35938C5.13281 1.65625 6.23958 1.11589 7.51562 0.738281C8.80469 0.360677 10.2174 0.171875 11.7539 0.171875C13.8503 0.171875 15.6797 0.549479 17.2422 1.30469C18.8047 2.0599 20.0156 3.09505 20.875 4.41016C21.7474 5.72526 22.1836 7.22917 22.1836 8.92188H16.3633C16.3633 8.08854 16.1875 7.35938 15.8359 6.73438C15.4974 6.09635 14.9766 5.59505 14.2734 5.23047C13.5833 4.86589 12.7109 4.68359 11.6562 4.68359C10.6406 4.68359 9.79427 4.83984 9.11719 5.15234C8.4401 5.45182 7.93229 5.86198 7.59375 6.38281C7.25521 6.89062 7.08594 7.46354 7.08594 8.10156C7.08594 8.58333 7.20312 9.01953 7.4375 9.41016C7.6849 9.80078 8.04948 10.1654 8.53125 10.5039C9.01302 10.8424 9.60547 11.1615 10.3086 11.4609C11.0117 11.7604 11.8255 12.0534 12.75 12.3398C14.2995 12.8086 15.6602 13.3359 16.832 13.9219C18.0169 14.5078 19.0065 15.1654 19.8008 15.8945C20.5951 16.6237 21.194 17.4505 21.5977 18.375C22.0013 19.2995 22.2031 20.3477 22.2031 21.5195C22.2031 22.7565 21.9622 23.8633 21.4805 24.8398C20.9987 25.8164 20.3021 26.6432 19.3906 27.3203C18.4792 27.9974 17.3919 28.5117 16.1289 28.8633C14.8659 29.2148 13.4531 29.3906 11.8906 29.3906C10.4844 29.3906 9.09766 29.2083 7.73047 28.8438C6.36328 28.4661 5.11979 27.8997 4 27.1445C2.89323 26.3893 2.00781 25.4258 1.34375 24.2539C0.679688 23.082 0.347656 21.6953 0.347656 20.0938H6.22656C6.22656 20.9792 6.36328 21.7279 6.63672 22.3398C6.91016 22.9518 7.29427 23.4466 7.78906 23.8242C8.29688 24.2018 8.89583 24.4753 9.58594 24.6445C10.2891 24.8138 11.0573 24.8984 11.8906 24.8984C12.9062 24.8984 13.7396 24.7552 14.3906 24.4688C15.0547 24.1823 15.543 23.7852 15.8555 23.2773C16.181 22.7695 16.3438 22.1966 16.3438 21.5586ZM30.0938 0.5625L36.0312 13.5312L41.9688 0.5625H48.3555L39 18.6484V29H33.0625V18.6484L23.6875 0.5625H30.0938ZM65.4453 21.5586C65.4453 21.0508 65.3672 20.5951 65.2109 20.1914C65.0677 19.7747 64.7943 19.3971 64.3906 19.0586C63.987 18.707 63.4206 18.362 62.6914 18.0234C61.9622 17.6849 61.0182 17.3333 59.8594 16.9688C58.5703 16.5521 57.3464 16.0833 56.1875 15.5625C55.0417 15.0417 54.026 14.4362 53.1406 13.7461C52.2682 13.043 51.5781 12.2292 51.0703 11.3047C50.5755 10.3802 50.3281 9.30599 50.3281 8.08203C50.3281 6.89714 50.5885 5.82292 51.1094 4.85938C51.6302 3.88281 52.3594 3.04948 53.2969 2.35938C54.2344 1.65625 55.3411 1.11589 56.6172 0.738281C57.9062 0.360677 59.319 0.171875 60.8555 0.171875C62.9518 0.171875 64.7812 0.549479 66.3438 1.30469C67.9062 2.0599 69.1172 3.09505 69.9766 4.41016C70.849 5.72526 71.2852 7.22917 71.2852 8.92188H65.4648C65.4648 8.08854 65.2891 7.35938 64.9375 6.73438C64.599 6.09635 64.0781 5.59505 63.375 5.23047C62.6849 4.86589 61.8125 4.68359 60.7578 4.68359C59.7422 4.68359 58.8958 4.83984 58.2188 5.15234C57.5417 5.45182 57.0339 5.86198 56.6953 6.38281C56.3568 6.89062 56.1875 7.46354 56.1875 8.10156C56.1875 8.58333 56.3047 9.01953 56.5391 9.41016C56.7865 9.80078 57.151 10.1654 57.6328 10.5039C58.1146 10.8424 58.707 11.1615 59.4102 11.4609C60.1133 11.7604 60.9271 12.0534 61.8516 12.3398C63.401 12.8086 64.7617 13.3359 65.9336 13.9219C67.1185 14.5078 68.1081 15.1654 68.9023 15.8945C69.6966 16.6237 70.2956 17.4505 70.6992 18.375C71.1029 19.2995 71.3047 20.3477 71.3047 21.5195C71.3047 22.7565 71.0638 23.8633 70.582 24.8398C70.1003 25.8164 69.4036 26.6432 68.4922 27.3203C67.5807 27.9974 66.4935 28.5117 65.2305 28.8633C63.9674 29.2148 62.5547 29.3906 60.9922 29.3906C59.5859 29.3906 58.1992 29.2083 56.832 28.8438C55.4648 28.4661 54.2214 27.8997 53.1016 27.1445C51.9948 26.3893 51.1094 25.4258 50.4453 24.2539C49.7812 23.082 49.4492 21.6953 49.4492 20.0938H55.3281C55.3281 20.9792 55.4648 21.7279 55.7383 22.3398C56.0117 22.9518 56.3958 23.4466 56.8906 23.8242C57.3984 24.2018 57.9974 24.4753 58.6875 24.6445C59.3906 24.8138 60.1589 24.8984 60.9922 24.8984C62.0078 24.8984 62.8411 24.7552 63.4922 24.4688C64.1562 24.1823 64.6445 23.7852 64.957 23.2773C65.2826 22.7695 65.4453 22.1966 65.4453 21.5586ZM86.3633 18.8633H79.1172V14.293H86.3633C87.4831 14.293 88.3945 14.1107 89.0977 13.7461C89.8008 13.3685 90.3151 12.8477 90.6406 12.1836C90.9661 11.5195 91.1289 10.7708 91.1289 9.9375C91.1289 9.09115 90.9661 8.30339 90.6406 7.57422C90.3151 6.84505 89.8008 6.25911 89.0977 5.81641C88.3945 5.3737 87.4831 5.15234 86.3633 5.15234H81.1484V29H75.2891V0.5625H86.3633C88.5898 0.5625 90.4974 0.966146 92.0859 1.77344C93.6875 2.56771 94.9115 3.66797 95.7578 5.07422C96.6042 6.48047 97.0273 8.08854 97.0273 9.89844C97.0273 11.7344 96.6042 13.3229 95.7578 14.6641C94.9115 16.0052 93.6875 17.0404 92.0859 17.7695C90.4974 18.4987 88.5898 18.8633 86.3633 18.8633ZM101.07 0.5625H111.676C113.85 0.5625 115.719 0.888021 117.281 1.53906C118.857 2.1901 120.068 3.15365 120.914 4.42969C121.76 5.70573 122.184 7.27474 122.184 9.13672C122.184 10.6602 121.923 11.9688 121.402 13.0625C120.895 14.1432 120.172 15.0482 119.234 15.7773C118.31 16.4935 117.223 17.0664 115.973 17.4961L114.117 18.4727H104.898L104.859 13.9023H111.715C112.743 13.9023 113.596 13.7201 114.273 13.3555C114.951 12.9909 115.458 12.4831 115.797 11.832C116.148 11.181 116.324 10.4258 116.324 9.56641C116.324 8.65495 116.155 7.86719 115.816 7.20312C115.478 6.53906 114.964 6.03125 114.273 5.67969C113.583 5.32812 112.717 5.15234 111.676 5.15234H106.93V29H101.07V0.5625ZM116.969 29L110.484 16.3242L116.676 16.2852L123.238 28.7266V29H116.969ZM145.777 24.4297V29H130.641V24.4297H145.777ZM132.555 0.5625V29H126.695V0.5625H132.555ZM143.805 12.1445V16.5977H130.641V12.1445H143.805ZM145.758 0.5625V5.15234H130.641V0.5625H145.758ZM164 21.5586C164 21.0508 163.922 20.5951 163.766 20.1914C163.622 19.7747 163.349 19.3971 162.945 19.0586C162.542 18.707 161.975 18.362 161.246 18.0234C160.517 17.6849 159.573 17.3333 158.414 16.9688C157.125 16.5521 155.901 16.0833 154.742 15.5625C153.596 15.0417 152.581 14.4362 151.695 13.7461C150.823 13.043 150.133 12.2292 149.625 11.3047C149.13 10.3802 148.883 9.30599 148.883 8.08203C148.883 6.89714 149.143 5.82292 149.664 4.85938C150.185 3.88281 150.914 3.04948 151.852 2.35938C152.789 1.65625 153.896 1.11589 155.172 0.738281C156.461 0.360677 157.874 0.171875 159.41 0.171875C161.507 0.171875 163.336 0.549479 164.898 1.30469C166.461 2.0599 167.672 3.09505 168.531 4.41016C169.404 5.72526 169.84 7.22917 169.84 8.92188H164.02C164.02 8.08854 163.844 7.35938 163.492 6.73438C163.154 6.09635 162.633 5.59505 161.93 5.23047C161.24 4.86589 160.367 4.68359 159.312 4.68359C158.297 4.68359 157.451 4.83984 156.773 5.15234C156.096 5.45182 155.589 5.86198 155.25 6.38281C154.911 6.89062 154.742 7.46354 154.742 8.10156C154.742 8.58333 154.859 9.01953 155.094 9.41016C155.341 9.80078 155.706 10.1654 156.188 10.5039C156.669 10.8424 157.262 11.1615 157.965 11.4609C158.668 11.7604 159.482 12.0534 160.406 12.3398C161.956 12.8086 163.316 13.3359 164.488 13.9219C165.673 14.5078 166.663 15.1654 167.457 15.8945C168.251 16.6237 168.85 17.4505 169.254 18.375C169.658 19.2995 169.859 20.3477 169.859 21.5195C169.859 22.7565 169.618 23.8633 169.137 24.8398C168.655 25.8164 167.958 26.6432 167.047 27.3203C166.135 27.9974 165.048 28.5117 163.785 28.8633C162.522 29.2148 161.109 29.3906 159.547 29.3906C158.141 29.3906 156.754 29.2083 155.387 28.8438C154.02 28.4661 152.776 27.8997 151.656 27.1445C150.549 26.3893 149.664 25.4258 149 24.2539C148.336 23.082 148.004 21.6953 148.004 20.0938H153.883C153.883 20.9792 154.02 21.7279 154.293 22.3398C154.566 22.9518 154.951 23.4466 155.445 23.8242C155.953 24.2018 156.552 24.4753 157.242 24.6445C157.945 24.8138 158.714 24.8984 159.547 24.8984C160.562 24.8984 161.396 24.7552 162.047 24.4688C162.711 24.1823 163.199 23.7852 163.512 23.2773C163.837 22.7695 164 22.1966 164 21.5586ZM192.926 24.4297V29H177.789V24.4297H192.926ZM179.703 0.5625V29H173.844V0.5625H179.703ZM190.953 12.1445V16.5977H177.789V12.1445H190.953ZM192.906 0.5625V5.15234H177.789V0.5625H192.906ZM219.488 0.5625V29H213.629L202.203 9.9375V29H196.344V0.5625H202.203L213.648 19.6445V0.5625H219.488ZM241.07 19.5664H246.91C246.793 21.4805 246.266 23.1797 245.328 24.6641C244.404 26.1484 243.108 27.3073 241.441 28.1406C239.788 28.974 237.796 29.3906 235.465 29.3906C233.642 29.3906 232.008 29.0781 230.562 28.4531C229.117 27.8151 227.88 26.9036 226.852 25.7188C225.836 24.5339 225.061 23.1016 224.527 21.4219C223.993 19.7422 223.727 17.8607 223.727 15.7773V13.8047C223.727 11.7214 224 9.83984 224.547 8.16016C225.107 6.46745 225.901 5.02865 226.93 3.84375C227.971 2.65885 229.215 1.7474 230.66 1.10938C232.105 0.471354 233.72 0.152344 235.504 0.152344C237.874 0.152344 239.872 0.582031 241.5 1.44141C243.141 2.30078 244.41 3.48568 245.309 4.99609C246.22 6.50651 246.767 8.22526 246.949 10.1523H241.09C241.025 9.00651 240.797 8.03646 240.406 7.24219C240.016 6.4349 239.423 5.82943 238.629 5.42578C237.848 5.00911 236.806 4.80078 235.504 4.80078C234.527 4.80078 233.674 4.98307 232.945 5.34766C232.216 5.71224 231.604 6.26562 231.109 7.00781C230.615 7.75 230.243 8.6875 229.996 9.82031C229.762 10.9401 229.645 12.2552 229.645 13.7656V15.7773C229.645 17.2487 229.755 18.5443 229.977 19.6641C230.198 20.7708 230.536 21.7083 230.992 22.4766C231.461 23.2318 232.06 23.8047 232.789 24.1953C233.531 24.5729 234.423 24.7617 235.465 24.7617C236.689 24.7617 237.698 24.5664 238.492 24.1758C239.286 23.7852 239.892 23.2057 240.309 22.4375C240.738 21.6693 240.992 20.7122 241.07 19.5664ZM269.84 24.4297V29H254.703V24.4297H269.84ZM256.617 0.5625V29H250.758V0.5625H256.617ZM267.867 12.1445V16.5977H254.703V12.1445H267.867ZM269.82 0.5625V5.15234H254.703V0.5625H269.82Z" fill="#42AAFF"/>
</svg>

